# xmcd
#
# Track frame offsets: 
#        182
#        49605
#        92342
#        134200
#        176492
#        202130
#        219637
#
# Disc length: 3487 seconds
#
# Revision: 4
# Processed by: cddbd v1.5.2PL0 Copyright (c) Steve Scherf et al.
# Submitted via: ExactAudioCopyFreeDBPlugin 1.0
#
DISCID=670d9d07
DTITLE=Vladimir Ashkenazy, Phiharmonia Orchestra - Symphony No. 3 and 6
DYEAR=1985
DGENRE=Symphonic
TTITLE0=Symphony No.3 in C Op.52 -I- Allegro moderato
TTITLE1=Symphony No.3 in C Op.52 -II- Andantino con moto, quasi allegr
TTITLE1=etto
TTITLE2=Symphony No.3 in C Op.52 -III- Moderato - Allegro (ma non tant
TTITLE2=o)
TTITLE3=Symphony No.6 in D minor Op.104 -I- Allegro molto moderato
TTITLE4=Symphony No.6 in D minor Op.104 -II- Allegretto moderato
TTITLE5=Symphony No.6 in D minor Op.104 -III- Poco vivace
TTITLE6=Symphony No.6 in D minor Op.104 -IV- Allegro molto
EXTD=Philharmonia Orchestra/ Vladimir Ashkenazy YEAR: 1985
EXTT0=
EXTT1=
EXTT2=
EXTT3=
EXTT4=
EXTT5=
EXTT6=
PLAYORDER=
